# xmcd
# 
# Track frame offsets:
#     150
#     22112
#     51819
#     68476
#     88133
#     115740
#     131823
#     154105
#     177362
#     197468
#     231174
# 
# Disc length: 3286
# 
# Revision: 1
# Processed by: cddbd v1.5.2PL0 Copyright (c) Steve Scherf et al.
# Submitted via: fre:ac v1.1beta1pre4
# 
DISCID=900cd40b
DTITLE=Black Lillies - Whiskey Angel
DYEAR=2009
DGENRE=Folk/Rock
TTITLE0=Whiskey Angel
TTITLE1=See Right Through
TTITLE2=Cruel
TTITLE3=Midnight
TTITLE4=Yes I Know
TTITLE5=There's Only One
TTITLE6=Goodbye Mama Blues
TTITLE7=The Distance
TTITLE8=Little Darlin'
TTITLE9=Where the Black Lillies Grow
TTITLE10=Lonely
EXTD=
EXTT0=
EXTT1=
EXTT2=
EXTT3=
EXTT4=
EXTT5=
EXTT6=
EXTT7=
EXTT8=
EXTT9=
EXTT10=
PLAYORDER=
